<?xml version="1.0" standalone="no"?>
<!DOCTYPE svg PUBLIC "-//W3C//DTD SVG 20010904//EN"
 "http://www.w3.org/TR/2001/REC-SVG-20010904/DTD/svg10.dtd">
<svg version="1.0" xmlns="http://www.w3.org/2000/svg"
 width="1231.000000pt" height="1319.000000pt" viewBox="0 0 1231.000000 1319.000000"
 preserveAspectRatio="xMidYMid meet">

<g transform="translate(0.000000,1319.000000) scale(0.100000,-0.100000)"
fill="#000000" stroke="none">
<path d="M8530 12299 c-107 -33 -198 -63 -202 -67 -4 -4 -9 -109 -10 -233 l-3
-226 -240 149 c-304 189 -277 174 -265 143 11 -30 37 -17 -282 -136 l-228 -84
0 -1101 0 -1102 -22 -5 c-221 -52 -630 -138 -635 -133 -9 8 -22 330 -14 337 3
4 63 23 133 42 294 83 372 142 431 320 25 78 32 326 20 789 -8 297 -9 318 -29
345 -14 19 -96 67 -260 151 -232 119 -241 123 -289 118 -71 -8 -265 -62 -590
-166 -154 -49 -292 -92 -307 -96 l-28 -6 0 -179 c0 -98 -1 -179 -3 -179 -2 0
-30 11 -63 24 l-59 24 -5 289 -5 288 -195 100 c-107 56 -341 176 -520 268
l-325 167 -188 -82 c-103 -45 -192 -87 -196 -93 -8 -9 -24 -825 -16 -825 3 0
308 107 378 132 l27 10 0 399 c0 219 3 399 6 399 4 0 78 -37 165 -82 l159 -83
-1 -215 c-1 -118 -5 -287 -8 -376 l-6 -161 -150 63 c-146 62 -165 65 -165 29
0 -5 71 -40 157 -76 l157 -67 -3 -473 c-1 -261 -4 -475 -5 -477 -2 -1 -68 34
-147 78 -79 44 -147 80 -152 80 -4 0 -11 -10 -16 -22 -7 -19 -42 -34 -198 -86
l-190 -62 -6 -263 c-9 -348 -9 -597 1 -597 4 0 97 29 207 63 l200 63 -3 427
c-2 235 -1 427 2 427 13 0 298 -164 302 -174 2 -6 3 -189 2 -407 l-3 -396
-144 65 c-144 65 -150 66 -164 29 -1 -4 -92 -36 -202 -71 l-200 -63 -3 -426
-2 -425 127 34 c71 19 165 44 211 55 l82 21 0 430 c0 407 1 429 18 424 10 -3
76 -32 147 -65 l130 -58 0 -98 0 -98 -68 -25 -67 -25 2 -196 c3 -167 5 -196
18 -194 8 1 956 207 2105 459 l2090 457 85 -50 c47 -28 150 -87 229 -133 l144
-83 -224 -54 c-123 -30 -235 -54 -249 -55 -19 0 -261 86 -443 157 -17 7 -17 9
-1 26 15 17 14 17 -43 4 -381 -88 -1165 -269 -1259 -290 l-120 -27 -363 -787
c-200 -432 -366 -789 -370 -793 -4 -5 -25 -2 -48 5 l-41 12 364 774 c200 426
362 777 360 779 -6 6 -351 -68 -354 -76 -2 -4 -33 -65 -70 -137 l-67 -130
-495 -72 c-272 -39 -509 -72 -527 -72 -29 -1 -33 3 -54 54 -12 30 -27 55 -33
55 -41 -1 -34 -22 152 -420 l187 -405 140 -17 c173 -22 166 -20 156 -36 -7
-11 -38 -10 -177 8 -93 12 -169 23 -170 24 -1 0 -88 190 -194 421 -105 231
-195 424 -199 428 -8 8 -140 -20 -154 -33 -5 -4 17 -60 47 -124 l55 -117 -42
3 -42 3 -52 100 c-31 61 -57 100 -66 99 -8 -1 -76 -16 -151 -35 -101 -25 -136
-37 -136 -49 0 -8 16 -96 35 -195 19 -99 35 -206 35 -237 0 -46 5 -62 25 -86
14 -17 39 -33 55 -37 l30 -7 -2 -201 -3 -201 -134 -18 c-74 -9 -148 -22 -164
-28 -17 -5 -32 -10 -33 -10 -2 0 -4 20 -4 45 0 25 -4 45 -9 45 -19 0 -386 -72
-391 -77 -3 -2 -8 -57 -11 -121 l-5 -117 -2 119 -2 119 -38 -6 c-20 -4 -106
-21 -189 -38 l-153 -32 -3 -181 -2 -181 -3 183 c-1 100 -3 182 -4 182 -2 0
-84 -16 -183 -35 -99 -19 -181 -35 -182 -35 -2 0 -4 -111 -6 -247 l-2 -248 -3
249 -2 248 -23 -5 c-12 -3 -87 -18 -167 -32 -80 -15 -146 -28 -147 -29 -1 -1
-6 -138 -10 -305 l-8 -303 -264 -137 c-146 -75 -266 -141 -268 -146 -1 -6 1
-16 6 -24 7 -11 27 -12 121 -2 62 7 114 10 116 8 2 -2 -42 -53 -98 -113 -73
-79 -128 -127 -199 -174 l-98 -65 -6 -90 c-4 -49 -5 -132 -3 -184 l3 -94 90
-24 c50 -14 94 -28 98 -33 5 -4 5 -141 1 -304 l-7 -297 -68 -52 c-38 -29 -68
-56 -69 -61 0 -5 31 -95 69 -200 l69 -191 -5 -661 -6 -660 -46 -17 c-104 -37
-176 -105 -188 -180 -6 -42 23 -103 68 -141 180 -152 665 -182 941 -59 l57 25
247 -16 c136 -8 249 -18 251 -20 3 -3 -32 -115 -77 -251 l-82 -245 26 -44 c28
-49 124 -147 197 -203 l48 -37 254 3 254 3 6 -183 6 -182 37 -38 c20 -20 63
-49 95 -64 58 -26 159 -48 182 -40 13 5 458 55 486 55 15 0 20 -19 35 -137 9
-75 18 -138 19 -139 7 -7 259 -52 270 -49 11 4 583 95 598 95 4 0 10 -12 13
-26 l7 -26 117 6 c64 3 260 30 434 58 l317 53 5 30 c3 16 13 105 22 198 10 92
20 167 23 167 3 0 26 -25 51 -55 25 -29 50 -55 55 -57 15 -6 521 9 544 17 11
3 55 67 105 150 l86 144 48 6 c265 35 439 96 532 186 49 48 70 93 70 151 0 33
9 56 38 101 l39 58 -64 281 c-35 155 -62 282 -61 284 2 1 90 6 197 10 225 8
183 -13 355 176 58 64 106 124 106 134 0 9 -68 147 -151 306 -143 275 -150
290 -144 332 12 76 -7 72 285 52 144 -9 263 -16 265 -14 5 6 75 320 75 336 0
16 -47 69 -303 345 l-98 106 26 148 c15 81 27 148 28 149 1 0 126 -9 277 -21
151 -12 276 -21 277 -21 7 5 49 353 43 359 -4 5 -122 77 -261 161 l-254 152 4
175 c2 96 5 177 8 181 2 4 111 42 241 84 130 42 240 79 244 83 5 5 33 234 41
340 2 23 -9 27 -233 96 l-235 73 -7 48 c-3 27 -7 75 -7 107 -1 32 -5 67 -11
77 -9 16 20 37 246 181 l256 162 -6 51 c-3 28 -11 114 -17 191 -6 77 -15 143
-20 146 -5 3 -135 55 -289 115 -154 60 -280 111 -280 114 0 3 108 117 241 253
l241 247 -64 163 -64 162 -261 131 c-320 160 -331 164 -381 139 -20 -9 -53
-24 -72 -32 l-35 -15 47 48 46 47 279 66 278 67 2 204 3 205 -130 85 -130 85
0 1121 0 1121 -227 149 c-124 82 -231 152 -237 155 -6 3 -99 -20 -206 -52z
m425 -145 l205 -136 -1 -452 c-1 -248 -5 -737 -8 -1087 l-6 -636 -112 78 -112
78 -93 -29 c-51 -16 -94 -30 -95 -30 -2 0 -3 529 -3 1175 0 757 3 1175 10
1175 5 0 102 -61 215 -136z m-839 -311 l205 -126 -7 -321 c-4 -177 -7 -322 -8
-323 -1 -1 -45 96 -98 215 -53 119 -144 322 -202 450 -57 127 -103 232 -100
232 2 0 97 -57 210 -127z m-3045 -389 c-1 -197 -6 -363 -10 -367 -5 -5 -39 5
-77 21 l-69 29 -3 114 c-2 63 0 232 3 376 l7 262 76 -38 75 -38 -2 -359z m134
288 l70 -37 -3 -195 c-1 -107 -5 -232 -8 -277 l-6 -82 -76 -25 -75 -26 6 137
c4 75 7 228 7 340 0 111 3 203 8 203 4 0 39 -17 77 -38z m231 -118 l104 -56 0
-260 c0 -143 -4 -258 -8 -256 -5 2 -57 23 -117 48 l-108 45 6 155 c4 85 7 206
7 268 0 61 3 112 6 112 3 0 53 -25 110 -56z m1525 -205 c103 -53 185 -101 192
-113 9 -16 12 -153 12 -536 0 -470 -2 -520 -18 -566 -26 -75 -69 -134 -125
-172 -52 -35 -224 -97 -352 -127 l-76 -18 -162 88 c-89 49 -159 92 -155 96 5
4 62 30 128 57 186 76 236 103 291 157 81 80 79 67 79 688 0 295 1 537 3 537
1 0 84 -41 183 -91z m-514 -308 c8 -12 10 -77 6 -246 -4 -187 -8 -236 -22
-260 -17 -32 -101 -79 -158 -89 l-33 -5 0 289 0 290 28 11 c57 22 128 37 147
32 11 -3 25 -13 32 -22z m-834 -143 l97 -41 -2 -825 -3 -826 -185 -48 c-102
-26 -193 -48 -202 -48 -17 0 -18 52 -18 960 l0 959 108 -45 c59 -25 151 -64
205 -86z m-667 106 l39 -17 -35 -13 c-49 -18 -50 -17 -50 16 0 35 -3 34 46 14z
m3231 -1271 c-6 -5 -382 -93 -399 -93 -5 0 -8 208 -7 463 l1 462 205 -413
c113 -227 203 -415 200 -419z m-1777 131 c91 -47 168 -89 171 -93 4 -3 9 -85
13 -181 l6 -175 -185 -41 -185 -41 0 309 c0 169 4 308 8 308 4 0 82 -39 172
-86z m2799 -179 l211 -140 0 -157 c0 -87 -2 -158 -4 -158 -3 0 -110 60 -238
134 l-233 135 -3 181 -2 182 29 -18 c16 -11 124 -82 240 -159z m-568 -561
c112 -42 206 -79 208 -81 3 -2 -33 -42 -80 -90 -80 -81 -91 -89 -238 -159 -84
-41 -163 -77 -175 -80 -20 -5 -25 6 -69 153 l-47 157 87 88 c48 48 93 88 99
88 6 0 103 -34 215 -76z m-1270 -299 c83 -173 82 -165 12 -166 -65 -1 -160
-12 -168 -21 -3 -3 -136 -306 -295 -673 -159 -368 -293 -672 -297 -676 -4 -4
-21 -5 -36 -2 -21 4 -27 10 -24 22 2 10 163 392 358 850 l353 833 20 -24 c10
-12 45 -77 77 -143z m1767 41 c75 -35 194 -92 264 -126 l127 -61 27 -72 c15
-40 37 -98 50 -129 12 -32 20 -58 18 -58 -13 0 -510 242 -520 253 -9 10 -29
55 -101 225 -7 17 -11 32 -7 32 3 0 67 -29 142 -64z m-1620 -416 c93 -286 166
-601 213 -910 17 -109 22 -194 23 -342 1 -108 -2 -199 -6 -203 -3 -4 -185 40
-404 97 l-398 104 -24 44 c-30 54 -113 169 -141 194 -12 11 -21 22 -21 27 0 6
452 1053 483 1119 11 22 20 26 82 31 39 3 86 5 105 5 l34 -1 54 -165z m1835
46 c142 -69 260 -126 262 -128 3 -2 -100 -108 -228 -235 l-232 -231 -277 121
c-152 67 -278 126 -279 131 -2 9 479 464 491 465 3 1 121 -55 263 -123z
m-2923 38 c0 -11 -392 -768 -404 -780 -8 -9 -46 -8 -154 6 -79 10 -144 19
-146 21 -10 11 -285 613 -282 616 5 5 921 141 959 142 15 1 27 -2 27 -5z
m-1045 -627 c97 -203 175 -370 173 -372 -2 -1 -26 -6 -54 -10 l-50 -6 -83 187
-82 187 17 35 c10 22 14 46 9 68 -7 41 -58 102 -91 110 -23 6 -24 10 -24 92 0
47 2 83 4 81 2 -2 83 -170 181 -372z m-235 278 l0 -65 -34 0 c-18 0 -61 3 -95
6 l-61 7 0 58 0 59 95 0 95 0 0 -65z m3680 -190 c135 -59 248 -110 253 -114 4
-4 -106 -33 -244 -65 -138 -32 -253 -55 -256 -53 -2 3 -6 49 -9 104 -2 54 -6
131 -8 171 -3 54 -1 72 7 69 7 -3 122 -53 257 -112z m-3617 64 c52 -27 72 -85
43 -124 -12 -17 -18 -18 -66 -7 -78 18 -172 15 -242 -9 -70 -23 -104 -19 -120
16 -14 30 13 80 62 112 30 21 44 23 167 23 79 0 143 -5 156 -11z m-50 -174
l37 -6 -2 -197 -3 -197 -100 -12 c-55 -7 -112 -14 -127 -17 l-28 -5 0 209 0
209 38 11 c66 18 97 19 185 5z m4294 -156 c142 -56 265 -105 274 -110 12 -6
18 -32 23 -111 4 -57 9 -126 13 -154 l6 -52 -251 77 c-138 42 -254 79 -256 82
-3 3 -20 79 -36 170 -17 90 -33 172 -36 182 -3 9 -3 17 0 17 3 0 121 -45 263
-101z m-3776 -264 c335 -75 492 -114 1244 -311 1029 -269 1088 -286 1073 -296
-18 -11 -68 -10 -68 2 0 5 -12 3 -27 -5 -17 -9 -135 -24 -308 -40 -382 -36
-1141 -110 -2045 -199 -666 -66 -765 -73 -839 -65 -93 10 -208 0 -281 -26 -24
-9 -114 -25 -200 -36 -152 -19 -1560 -159 -1603 -159 -22 0 195 114 1331 696
325 167 604 311 618 321 15 10 69 22 128 30 55 7 261 34 456 58 195 25 360 47
365 50 21 8 45 4 156 -20z m3815 -126 c128 -40 231 -75 229 -80 -3 -4 -106
-71 -229 -148 l-224 -142 -259 92 c-142 50 -261 94 -265 97 -6 7 486 252 506
252 5 0 114 -32 242 -71z m-501 -320 l282 -101 7 -75 c3 -42 6 -92 6 -112 l0
-37 -297 28 c-164 15 -299 27 -300 28 -2 0 -3 83 -3 185 0 128 3 185 11 185 6
0 138 -45 294 -101z m-841 -560 l236 -301 -1 -322 c0 -176 -6 -607 -13 -956
l-13 -635 -29 -70 -29 -70 -3 1023 -2 1023 -167 242 c-92 133 -179 259 -193
280 l-27 37 -53 -77 c-30 -43 -90 -128 -134 -190 -76 -104 -83 -111 -119 -115
-20 -2 -36 0 -35 4 7 17 331 428 338 428 4 0 114 -136 244 -301z m-1901 137
c-7 -58 26 -168 68 -226 l31 -43 202 6 c202 7 889 43 959 51 43 5 44 1 14 -36
l-22 -26 -384 -21 c-212 -12 -386 -23 -388 -24 -1 -2 -9 -48 -17 -103 -33
-214 -60 -310 -131 -461 l-43 -92 74 -181 c41 -100 83 -200 93 -223 64 -143
571 -1402 569 -1414 -2 -8 -7 -14 -12 -14 -11 -1 -806 1837 -806 1861 0 8 27
94 60 190 63 185 110 350 110 387 0 13 -10 29 -23 38 -28 18 -174 40 -208 32
-22 -6 -24 -11 -25 -74 -1 -76 -39 -224 -103 -396 l-39 -106 454 -1080 455
-1081 -18 -30 c-9 -17 -20 -30 -24 -30 -3 0 -212 489 -464 1088 -251 598 -461
1091 -466 1097 -6 6 -49 1 -122 -14 -61 -12 -116 -24 -120 -24 -5 -1 -22 15
-39 35 l-31 37 57 61 c137 149 216 427 216 767 l0 82 48 4 c26 2 54 4 63 5 14
2 16 -6 12 -42z m3317 -26 c107 -33 195 -62 196 -63 1 -3 -28 -281 -31 -285
-1 -1 -98 27 -215 63 -117 36 -214 65 -215 65 -1 0 30 256 35 288 0 2 8 1 18
-2 9 -3 105 -33 212 -66z m-4377 -77 c-3 -21 -7 -40 -9 -42 -6 -7 -294 41
-294 49 0 7 166 25 262 28 l47 2 -6 -37z m-370 -28 c58 -15 67 -21 67 -40 0
-23 -29 -35 -86 -35 -12 0 -30 -10 -38 -22 -13 -18 -30 -23 -118 -31 -99 -10
-158 -6 -158 11 0 5 17 13 38 18 l37 9 -62 24 c-66 25 -92 46 -77 61 33 33
278 36 397 5z m247 -55 c116 -19 120 -20 120 -42 0 -15 -4 -18 -17 -13 -10 4
-35 9 -56 12 -21 3 -40 10 -43 14 -3 5 -23 9 -44 9 -21 0 -42 5 -45 10 -3 6
-15 10 -26 10 -10 0 -19 5 -19 10 0 7 13 9 33 6 17 -3 61 -10 97 -16z m2698
-71 c-15 -10 -58 -12 -58 -3 0 3 15 26 33 51 l32 46 3 -43 c2 -28 -1 -46 -10
-51z m-4102 24 c-9 -22 13 -168 29 -189 12 -17 38 -16 481 4 258 13 498 25
534 28 l65 5 -35 -17 c-24 -12 -88 -21 -210 -30 -245 -18 -837 -76 -848 -83
-14 -9 -41 -214 -53 -393 -20 -317 27 -726 117 -1007 16 -51 21 -88 18 -115
-4 -25 0 -58 10 -86 9 -25 16 -57 16 -72 0 -20 5 -28 18 -28 30 0 55 -40 87
-135 38 -116 151 -341 238 -474 57 -86 71 -102 81 -90 7 8 57 93 110 189 54
96 100 176 101 178 2 2 14 -2 28 -10 l25 -13 -64 -120 c-36 -66 -90 -167 -120
-224 l-55 -103 74 -73 c48 -47 97 -83 141 -105 36 -18 68 -31 71 -28 3 2 43
130 90 283 47 153 86 279 88 281 7 8 57 -10 57 -21 0 -7 -45 -135 -99 -285
l-99 -272 66 -49 c37 -27 135 -83 217 -123 593 -293 1259 -300 1759 -20 54 30
99 54 101 52 5 -7 25 -72 25 -84 0 -6 -35 -34 -77 -62 -812 -520 -1908 -331
-2573 443 -390 455 -592 997 -664 1780 -23 249 -29 483 -17 680 10 168 35 372
46 383 6 6 115 19 179 21 41 1 47 -1 42 -16z m1641 3 c105 -28 163 -86 163
-163 0 -59 -46 -113 -127 -153 -59 -28 -83 -26 -83 5 0 26 32 94 49 104 5 3
11 17 12 31 3 18 -2 28 -18 35 -14 6 -23 19 -23 32 0 13 -11 30 -25 39 -19 12
-25 25 -25 50 0 39 3 40 77 20z m-2189 -216 l132 -160 0 -1090 c0 -600 -3
-1090 -6 -1090 -3 0 -14 5 -25 10 -19 10 -19 33 -19 1078 l-1 1067 -90 110
c-51 61 -111 136 -135 167 -45 58 -45 62 1 67 6 0 70 -71 143 -159z m6345 104
c103 -32 187 -60 187 -64 0 -4 -88 -35 -195 -69 l-194 -62 -231 47 c-126 26
-230 50 -230 53 0 4 420 138 470 150 3 1 89 -24 193 -55z m-6730 -94 l-120
-132 -6 -156 c-4 -87 -7 -190 -7 -231 l0 -73 -32 6 c-17 3 -33 7 -34 9 -2 1 1
103 5 225 l9 223 53 57 c154 166 191 201 217 204 15 2 29 2 31 1 2 -1 -51 -61
-116 -133z m2335 84 c29 -8 67 -23 85 -33 l32 -18 3 -100 3 -101 139 -46 c232
-76 411 -176 512 -284 50 -55 84 -123 176 -360 2 -7 -22 4 -55 25 -32 21 -82
49 -110 62 l-50 23 -22 99 c-12 54 -27 101 -33 105 -24 15 -27 -16 -8 -91 11
-43 18 -80 15 -83 -11 -11 -55 30 -55 51 0 26 -34 155 -44 164 -3 4 -11 2 -17
-4 -7 -7 -6 -29 5 -71 29 -109 35 -107 -126 -40 -79 33 -172 69 -208 80 -175
53 -269 101 -377 188 -32 26 -67 63 -78 83 l-19 36 29 31 c16 17 40 33 52 36
23 6 23 9 23 141 l0 134 38 -6 c20 -4 61 -13 90 -21z m-178 -134 c0 -48 -4
-72 -12 -74 -7 -2 -60 -18 -117 -36 -85 -27 -105 -31 -112 -19 -5 8 -9 17 -9
22 0 4 -6 7 -14 7 -31 0 -25 21 16 61 59 57 160 107 221 108 27 1 27 1 27 -69z
m2882 -60 c-6 -261 -39 -594 -79 -790 -22 -112 -97 -364 -121 -406 -10 -18
-22 511 -22 982 l0 304 23 5 c20 4 152 12 186 11 12 -1 14 -20 13 -106z m-364
-907 l-3 -998 -43 -127 c-23 -70 -46 -129 -50 -132 -4 -2 -134 307 -288 687
l-282 690 49 91 c105 198 152 359 215 743 l5 32 127 4 c70 1 160 4 200 5 l72
2 -2 -997z m1572 927 c134 -28 246 -53 249 -56 6 -5 2 -327 -4 -332 -3 -3
-537 58 -542 62 -1 1 4 76 12 167 8 90 15 174 15 187 0 12 6 22 13 22 7 0 122
-23 257 -50z m-4480 -96 c5 -5 3 -30 -4 -56 -9 -38 -21 -54 -61 -84 -96 -73
-154 -125 -211 -195 -55 -65 -59 -68 -67 -47 -17 43 0 212 30 300 23 67 33 84
53 90 33 10 249 3 260 -8z m302 -39 c-3 -23 3 -45 18 -69 60 -98 252 -221 422
-270 188 -54 606 -244 733 -332 69 -48 70 -50 86 -114 29 -118 32 -140 15
-140 -9 0 -25 8 -36 18 -11 9 -30 19 -43 22 -14 4 -23 15 -25 32 -6 52 -84 95
-115 64 -8 -9 -19 -16 -23 -16 -5 0 -3 5 4 12 7 7 12 27 12 46 0 29 -2 33 -15
22 -11 -9 -22 -9 -46 -1 -18 6 -49 11 -70 11 l-39 0 0 44 c0 31 -5 46 -16 50
-24 9 -62 7 -69 -4 -3 -5 -15 -10 -26 -10 -10 0 -19 5 -19 10 0 6 -14 10 -31
10 -22 0 -32 6 -36 19 -9 34 -93 53 -93 20 0 -5 -13 6 -30 24 -16 19 -30 46
-30 59 0 34 -18 48 -62 48 -34 0 -38 -3 -38 -25 0 -28 -3 -29 -33 -14 -28 15
-37 28 -37 57 0 18 -6 22 -30 22 -32 0 -70 -30 -70 -55 0 -8 -4 -15 -10 -15
-5 0 -10 4 -10 10 0 5 -11 20 -25 34 -17 17 -25 36 -25 61 0 22 -6 38 -15 41
-8 4 -15 10 -15 15 0 19 -52 59 -78 59 -55 0 -71 -38 -34 -84 35 -45 17 -43
-27 3 -21 22 -46 41 -55 41 -35 0 -91 38 -104 72 -7 18 -19 47 -27 65 -13 29
-12 31 7 36 14 4 19 11 15 21 -4 9 -1 15 6 13 7 -1 13 12 15 31 2 21 -1 32
-10 33 -11 0 117 57 132 58 4 1 4 -15 2 -34z m-673 -75 c-23 -84 -28 -251 -10
-309 9 -29 8 -40 -8 -64 l-18 -28 -13 78 c-16 90 -19 197 -7 264 7 42 62 147
72 137 2 -2 -5 -37 -16 -78z m361 -77 c1 -42 34 -106 80 -157 42 -46 184 -146
251 -178 37 -18 37 -18 27 -60 -14 -65 -39 -101 -78 -113 -79 -23 -110 -66
-110 -153 0 -38 -5 -55 -24 -75 -14 -15 -29 -34 -34 -43 -6 -11 -30 -17 -84
-21 l-76 -6 13 74 c16 91 30 149 48 211 15 47 10 58 -22 58 -12 0 -41 -102
-65 -228 l-23 -117 -37 -3 -38 -3 7 63 c8 71 40 244 50 270 4 11 0 18 -15 23
-12 4 -23 5 -26 3 -7 -8 -43 -191 -53 -277 -6 -46 -12 -85 -13 -87 -2 -1 -15
-5 -30 -9 l-28 -7 6 48 c13 116 37 259 49 302 14 47 9 61 -21 62 -18 0 -55
-176 -72 -345 -6 -62 -9 -70 -29 -73 -21 -3 -23 1 -23 36 0 44 33 247 50 301
10 35 -1 55 -25 48 -20 -7 -56 -179 -70 -334 -6 -62 -10 -72 -28 -76 -12 -2
-31 -8 -41 -12 -18 -8 -19 -4 -13 76 17 230 124 474 289 654 53 58 186 175
201 175 4 0 7 -12 7 -27z m4545 -126 l190 -23 198 -118 c108 -66 196 -121 194
-123 -3 -2 -98 17 -212 43 l-208 46 -201 98 c-123 60 -191 98 -176 99 14 0
111 -10 215 -22z m-6304 -173 l77 -27 -4 -121 c-9 -230 -6 -219 -82 -276 -37
-27 -70 -49 -74 -50 -5 0 -8 113 -8 250 0 138 3 250 8 250 4 0 41 -12 83 -26z
m6759 -114 c135 -29 248 -55 251 -59 6 -5 -26 -270 -33 -276 -2 -1 -104 6
-228 16 -124 10 -236 18 -249 18 l-24 1 8 172 c7 170 10 192 23 185 4 -3 117
-28 252 -57z m-4144 -142 c19 -11 34 -24 34 -30 0 -23 -43 -68 -86 -89 -26
-12 -54 -35 -63 -50 -9 -16 -20 -27 -26 -25 -26 9 5 133 51 204 17 26 33 24
90 -10z m906 -255 c51 -109 35 -228 -38 -293 -32 -28 -79 -48 -89 -38 -3 3 -2
26 1 52 6 38 16 57 50 92 24 24 44 50 44 58 0 8 -14 26 -32 41 -18 16 -32 37
-34 53 -1 15 -9 54 -17 87 -8 33 -17 76 -21 95 l-6 35 57 -60 c31 -33 69 -87
85 -122z m-643 143 c6 -7 24 -16 39 -20 42 -9 49 -17 56 -70 l8 -48 -104 7
c-57 4 -105 9 -107 11 -2 2 10 19 28 39 17 20 31 46 31 59 0 37 27 49 49 22z
m3266 -37 c148 -23 271 -42 271 -43 1 0 -10 -66 -25 -146 -20 -111 -30 -145
-41 -144 -87 5 -522 49 -529 53 -6 4 19 299 28 319 2 5 35 1 296 -39z m-3082
-54 c38 -36 35 -55 -8 -55 -34 0 -35 1 -35 40 0 47 6 49 43 15z m87 -55 c0 -5
-2 -10 -4 -10 -3 0 -8 5 -11 10 -3 6 -1 10 4 10 6 0 11 -4 11 -10z m-202 -36
l32 -5 0 -85 c0 -59 -4 -86 -12 -89 -7 -2 -51 -6 -97 -10 l-83 -7 7 71 c6 56
4 74 -9 93 -9 12 -16 27 -16 33 0 11 108 10 178 -1z m-1076 -39 c15 -45 15
-46 -6 -60 -12 -8 -41 -21 -64 -29 -24 -9 -51 -25 -60 -36 -11 -14 -23 -19
-34 -15 -14 6 -16 17 -12 78 3 40 7 77 9 84 4 14 32 20 100 22 l50 1 17 -45z
m685 -2 c17 -43 -98 -163 -156 -163 -17 0 -31 4 -31 10 0 30 36 92 71 119 21
18 42 43 45 56 6 24 7 24 36 9 16 -8 32 -22 35 -31z m-904 -45 c-3 -46 -7 -85
-9 -86 -1 -2 -17 -1 -34 3 l-31 7 3 71 c3 77 1 74 70 86 4 0 5 -36 1 -81z
m1416 76 l32 -7 -3 -76 -3 -76 -37 -3 -38 -3 0 85 c0 47 4 86 9 86 5 0 23 -3
40 -6z m159 -36 c23 -12 42 -27 42 -35 0 -7 6 -13 14 -13 17 0 41 -28 32 -37
-8 -9 -159 -32 -168 -26 -5 2 -8 35 -8 73 0 65 1 68 23 63 12 -2 41 -14 65
-25z m-3365 -175 c-3 -109 -6 -199 -7 -199 0 -1 -12 -5 -25 -9 l-23 -7 3 185
c4 165 6 187 23 206 11 12 22 21 26 21 4 0 5 -89 3 -197z m1673 160 c-3 -21
-6 -50 -6 -65 0 -23 -4 -28 -25 -28 -24 0 -25 2 -25 65 l0 65 31 0 c31 0 31
-1 25 -37z m-108 -79 c-2 -2 -14 -1 -26 3 -18 4 -22 13 -22 44 0 32 4 41 23
48 21 8 22 6 25 -41 2 -28 2 -52 0 -54z m-88 46 c0 -35 1 -35 -48 -14 l-37 15
25 14 c42 24 60 19 60 -15z m-32 -71 c25 -8 33 -18 38 -45 7 -40 19 -50 39
-34 10 8 13 21 9 37 -6 22 -4 24 17 21 17 -2 25 -12 32 -38 5 -19 11 -37 13
-39 8 -8 34 22 34 40 0 14 7 19 25 19 22 0 25 -4 25 -38 0 -44 21 -79 40 -67
8 5 10 21 6 52 l-6 44 32 -3 c27 -3 33 -8 41 -38 5 -19 11 -37 13 -39 9 -9 34
24 34 45 0 13 5 24 10 24 6 0 10 -38 10 -94 0 -60 5 -106 15 -129 15 -37 12
-140 -6 -168 -20 -33 -272 122 -370 228 -55 59 -75 94 -84 148 -3 22 -8 50
-11 63 -5 25 0 26 44 11z m2026 -60 c-1 -52 -90 -230 -163 -326 -111 -148
-257 -265 -433 -348 -115 -54 -214 -82 -341 -95 -182 -19 -446 37 -628 131
-43 23 -79 45 -79 50 0 13 13 11 94 -16 91 -31 136 -31 193 -4 63 31 89 71
138 221 46 137 72 178 116 178 58 0 104 52 117 133 7 40 9 42 45 45 l37 3 0
-49 c0 -45 -4 -53 -40 -86 -22 -20 -46 -36 -53 -36 -23 0 -81 -49 -104 -88
-16 -26 -23 -53 -23 -91 0 -47 -4 -57 -33 -85 -35 -33 -109 -145 -121 -184 -8
-25 7 -52 29 -52 7 0 39 18 71 39 33 22 78 44 101 50 60 16 103 69 103 126 0
50 20 71 80 81 88 16 153 85 228 240 29 60 56 116 61 124 4 8 22 16 40 18 l32
3 -15 -35 c-41 -99 -205 -305 -393 -494 -68 -68 -123 -129 -123 -137 0 -22 36
-28 129 -20 172 14 369 83 518 182 132 87 259 234 311 360 27 63 28 83 5 83
-13 0 -29 -23 -52 -76 -19 -42 -59 -108 -89 -146 -142 -182 -433 -335 -672
-355 l-75 -6 135 139 c188 194 328 384 364 497 4 12 16 17 43 17 21 0 48 3 61
6 19 6 22 3 22 -22 -1 -16 -7 -63 -14 -104 -8 -41 -13 -76 -12 -77 0 0 10 -3
21 -5 17 -3 21 6 32 62 7 36 12 82 13 103 0 31 5 39 26 47 14 6 35 10 46 10
20 0 21 -3 15 -89 -4 -48 -9 -96 -13 -105 -4 -12 0 -16 15 -16 28 0 30 7 39
120 l7 95 65 11 c36 7 79 11 95 11 28 -2 30 -5 29 -38z m2801 11 c121 -12 227
-24 236 -28 16 -7 348 -362 349 -372 0 -3 -87 2 -192 12 -106 9 -204 17 -218
17 -19 1 -82 52 -233 192 -114 104 -207 192 -207 195 0 7 39 5 265 -16z
m-4915 -24 c0 -13 3 -31 6 -39 4 -11 -7 -15 -47 -19 -28 -3 -55 -11 -59 -18
-4 -7 -13 -11 -19 -9 -16 6 34 75 67 93 39 22 52 19 52 -8z m47 -146 c17 -44
26 -76 19 -71 -6 5 -24 11 -41 13 l-30 3 2 65 c2 75 1 70 11 70 5 0 22 -36 39
-80z m2447 -547 c115 -345 209 -634 210 -642 1 -11 -24 -21 -89 -38 -165 -41
-268 -55 -451 -60 -263 -8 -427 23 -664 123 -275 115 -392 226 -420 395 -17
111 -18 109 44 109 129 0 329 54 471 128 206 108 398 302 501 505 32 62 37 67
67 67 17 0 50 9 72 19 22 11 42 20 45 20 3 1 99 -281 214 -626z m-3485 400
c18 -82 33 -155 34 -164 1 -9 -70 -101 -158 -204 -88 -103 -170 -199 -182
-214 l-22 -26 -1 332 0 331 133 45 c72 25 139 46 147 46 12 1 23 -33 49 -146z
m1176 39 c79 -70 196 -137 318 -181 147 -53 149 -57 44 -67 -69 -7 -83 1 -50
27 17 15 12 16 -162 35 -42 5 -56 12 -87 44 -56 60 -140 190 -122 190 3 0 30
-21 59 -48z m3401 -884 c-4 -436 -9 -821 -12 -855 l-6 -63 -36 0 -37 0 6 302
c4 167 10 517 14 778 l7 475 31 78 c17 42 32 77 35 77 2 0 1 -357 -2 -792z
m1742 725 c116 -9 212 -20 212 -24 0 -16 -59 -261 -64 -266 -5 -5 -477 24
-482 30 -1 1 12 47 27 102 16 55 34 117 40 138 12 44 -10 43 267 20z m-414
-299 c15 -9 17 -18 11 -53 l-7 -41 -229 0 -229 0 0 165 0 166 218 -113 c119
-62 225 -118 236 -124z m-3854 -309 c18 -47 40 -77 99 -136 67 -68 92 -84 216
-146 247 -122 431 -170 685 -180 175 -6 327 10 515 53 60 15 121 29 134 31 46
11 16 -19 -44 -44 -184 -76 -453 -113 -677 -94 -249 22 -460 81 -683 191 -237
117 -312 198 -323 349 -5 71 9 154 31 180 10 11 13 -2 18 -65 4 -43 17 -106
29 -139z m3965 -42 c59 -115 126 -241 147 -280 l40 -73 -254 0 -253 1 -122
184 -123 185 0 95 0 95 229 0 228 0 108 -207z m-627 -214 c-2 -142 -6 -260 -9
-263 -3 -4 -14 -4 -23 0 -14 5 -16 35 -16 273 0 147 3 271 7 274 3 4 15 -1 25
-10 18 -16 19 -33 16 -274z m-5390 40 l192 4 0 -183 0 -182 -22 5 c-107 27
-343 38 -451 22 l-47 -7 0 288 0 289 68 -120 67 -120 193 4z m192 121 l0 -70
-112 0 c-61 0 -108 3 -104 7 13 13 201 133 209 133 4 0 7 -31 7 -70z m110
-369 l0 -140 -30 10 c-30 11 -30 12 -30 82 0 40 -3 82 -6 93 -4 15 4 32 26 58
18 20 34 36 36 36 2 0 4 -63 4 -139z m4889 -38 l113 -83 -196 0 c-108 0 -196
2 -196 5 0 3 23 50 50 106 l51 100 32 -23 c18 -12 83 -60 146 -105z m962 40
c-6 -10 -50 -60 -98 -111 l-88 -93 -177 -6 c-107 -4 -178 -2 -178 3 0 5 13 41
29 79 16 39 36 87 45 108 l15 37 231 0 c217 0 230 -1 221 -17z m-6036 -147
c167 -34 286 -102 310 -177 17 -54 -60 -129 -178 -174 -154 -58 -421 -74 -605
-36 -233 49 -357 164 -278 259 52 60 202 120 361 141 88 12 298 5 390 -13z
m5195 -302 c0 -245 -2 -275 -15 -270 -9 3 -53 13 -99 23 l-83 17 -93 220 c-51
122 -99 236 -107 254 l-13 32 205 0 205 0 0 -276z m221 206 c9 -7 132 -550
126 -557 -3 -2 -33 -7 -67 -10 -51 -5 -70 -2 -111 17 l-49 23 0 299 0 299 47
-33 c26 -18 50 -35 54 -38z m-4808 -121 c54 -61 96 -113 94 -116 -4 -4 -358
15 -380 20 -8 2 173 207 183 207 3 0 50 -50 103 -111z m3707 -316 c0 -25 -6
-30 -56 -45 l-56 -16 48 44 c27 23 52 43 57 44 4 0 7 -12 7 -27z m675 -48 c55
-8 124 -22 153 -30 l52 -16 0 -59 c0 -67 2 -66 -79 -50 -115 22 -359 31 -517
20 -255 -18 -372 -49 -418 -112 -18 -26 -18 -28 -2 -53 25 -37 104 -71 216
-92 137 -25 583 -25 720 0 111 21 191 55 215 91 16 24 16 28 1 51 -15 23 -24
155 -11 155 13 0 83 -50 112 -80 95 -97 44 -201 -139 -284 -290 -132 -819
-138 -1094 -12 -233 107 -277 232 -121 340 62 43 189 95 232 96 17 0 75 11
130 24 84 20 128 24 275 25 110 0 212 -5 275 -14z m535 -132 c0 -5 -7 -16 -14
-25 -12 -17 -14 -17 -30 0 -23 26 -20 32 14 32 17 0 30 -3 30 -7z m-535 -53
c50 -6 115 -15 147 -21 l56 -11 4 -55 c3 -47 1 -54 -17 -58 -11 -3 -40 -9 -65
-15 -109 -23 -357 -34 -517 -21 -146 11 -276 31 -290 44 -3 3 9 15 27 25 52
32 174 44 410 41 l215 -3 3 26 3 26 -118 7 c-65 4 -185 5 -268 2 -213 -9 -295
-35 -295 -94 0 -12 -3 -23 -6 -23 -11 0 -64 34 -64 41 0 28 145 72 285 88 113
12 383 13 490 1z m-3745 -73 l105 -72 3 -101 3 -101 -222 -7 c-122 -3 -224 -5
-226 -2 -5 5 219 356 227 355 3 0 52 -32 110 -72z m2528 -245 l41 -49 -141
-17 c-78 -9 -143 -14 -145 -12 -3 2 194 125 203 126 0 0 19 -22 42 -48z m722
-92 c41 -5 130 -10 198 -10 67 0 122 -3 122 -7 -1 -5 -33 -62 -73 -128 l-73
-120 -244 -7 c-134 -4 -245 -6 -247 -4 -2 2 38 70 88 150 91 145 93 148 123
142 17 -3 65 -10 106 -16z m-2492 -27 c74 -14 136 -31 138 -37 11 -33 41 -322
33 -326 -11 -8 -458 -54 -464 -49 -9 9 136 439 148 439 7 0 72 -12 145 -27z
m1918 -49 l68 -76 -22 -206 c-13 -114 -24 -207 -25 -207 -1 -1 -105 -19 -232
-39 -126 -21 -238 -40 -248 -42 -16 -5 -17 12 -15 298 l3 303 175 21 c96 12
187 22 201 23 21 1 41 -15 95 -75z m-924 -295 c46 -137 82 -251 79 -253 -13
-8 -561 -89 -566 -85 -3 3 20 134 50 290 30 156 55 287 55 292 0 4 67 7 149 7
l148 0 85 -251z"/>
<path d="M5050 7456 c-189 -25 -324 -46 -323 -52 3 -18 355 -644 362 -644 7 0
341 720 341 733 0 11 -34 7 -380 -37z m308 -14 c-1 -5 -28 -63 -58 -130 l-55
-122 -3 116 c-1 64 0 119 3 122 3 4 27 9 53 13 26 3 51 7 55 8 5 0 7 -3 5 -7z
m-169 -199 l0 -178 -52 -108 -52 -107 -72 129 -73 129 0 145 0 144 83 10 c45
6 101 11 125 12 l42 1 -1 -177z m-309 67 c0 -44 -2 -80 -4 -80 -6 0 -76 129
-76 140 0 5 15 11 33 13 17 2 35 5 40 5 4 1 7 -34 7 -78z"/>
<path d="M5399 7166 c-94 -182 -183 -350 -196 -374 -14 -24 -23 -46 -20 -48 4
-4 253 131 847 461 47 26 113 63 148 82 35 19 62 37 59 39 -2 3 -153 42 -335
88 l-331 84 -172 -332z m453 213 c133 -33 247 -63 254 -67 8 -5 -24 -27 -85
-60 l-99 -52 -53 35 c-65 43 -265 145 -285 145 -8 0 -14 5 -14 11 0 17 20 49
31 49 5 0 118 -27 251 -61z"/>
<path d="M4352 7243 l-284 -146 39 -19 c21 -11 148 -60 283 -109 135 -49 333
-122 440 -163 107 -40 196 -72 198 -71 5 4 -375 649 -384 652 -5 1 -136 -63
-292 -144z m426 -163 c78 -135 142 -248 142 -251 0 -6 -43 9 -302 107 l-68 26
0 167 0 167 33 17 c17 8 37 14 42 13 6 -1 74 -112 153 -246z"/>
<path d="M5778 7032 c-491 -256 -547 -288 -542 -307 4 -11 7 -21 8 -22 1 -1
87 9 191 22 104 14 363 41 575 60 212 19 464 42 560 51 1180 108 1085 97 1088
121 2 14 -3 23 -15 27 -43 13 -1307 336 -1312 335 -3 -1 -252 -130 -553 -287z
m447 97 c30 -59 85 -219 85 -247 0 -21 -15 -25 -155 -38 l-71 -6 -32 132 c-18
73 -32 133 -30 135 15 13 165 82 171 78 4 -2 19 -27 32 -54z m454 32 c28 -38
82 -177 89 -223 4 -35 3 -38 -21 -38 -23 0 -26 6 -42 73 -10 39 -29 103 -42
141 -27 80 -26 76 -14 76 5 0 19 -13 30 -29z m561 -120 c202 -52 258 -70 235
-74 -16 -3 -120 -14 -229 -23 -141 -12 -201 -14 -204 -6 -2 6 -21 47 -42 91
-22 45 -36 81 -32 81 4 0 126 -31 272 -69z"/>
<path d="M3550 6842 c-206 -103 -411 -205 -455 -226 -124 -59 -165 -85 -165
-106 0 -10 3 -21 8 -24 4 -2 331 29 727 70 396 40 835 85 975 99 310 31 302
30 298 57 -3 19 -57 38 -493 169 -269 82 -497 149 -505 148 -8 0 -184 -84
-390 -187z m579 -54 c-2 -115 -3 -131 -9 -83 -12 91 -11 225 0 225 6 0 9 -53
9 -142z m-392 -110 c-1 -40 -3 -10 -3 67 0 77 1 110 3 73 2 -37 2 -100 0 -140z
m951 82 c61 -18 110 -35 107 -38 -9 -9 -240 -29 -248 -22 -13 11 3 102 17 97
6 -2 62 -19 124 -37z m-1318 -124 c0 -30 -4 -58 -10 -61 -6 -4 -10 17 -10 54
0 34 4 61 10 61 6 0 10 -24 10 -54z"/>
<path d="M4510 6510 c0 -5 9 -10 21 -10 11 0 17 5 14 10 -3 6 -13 10 -21 10
-8 0 -14 -4 -14 -10z"/>
<path d="M2645 3099 c-123 -16 -199 -48 -221 -90 -13 -26 -13 -32 1 -53 20
-30 89 -60 175 -77 85 -17 422 -17 520 -1 238 40 259 153 38 208 -76 19 -409
27 -513 13z m375 -39 c134 -14 130 -12 130 -75 0 -63 4 -62 -168 -74 -113 -9
-314 0 -392 17 l-35 8 30 20 c26 17 47 19 197 19 165 -1 168 0 168 21 0 18 -8
22 -46 28 -26 3 -95 6 -154 6 -124 0 -199 -18 -228 -55 -20 -25 -20 -25 -43
-6 l-23 18 27 17 c78 52 328 78 537 56z"/>
<path d="M3928 11877 l-188 -82 0 -397 c0 -219 3 -398 7 -398 12 0 357 123
366 130 4 3 6 191 5 418 l-3 411 -187 -82z"/>
<path d="M3560 11721 c-85 -37 -165 -73 -177 -80 l-23 -12 0 -373 c0 -205 3
-375 6 -378 3 -3 86 21 185 54 l179 60 0 399 c0 219 -3 399 -7 398 -5 0 -78
-31 -163 -68z"/>
<path d="M3180 11554 l-165 -73 -3 -365 -2 -366 22 0 c22 0 295 96 311 110 4
3 6 178 5 387 l-3 381 -165 -74z"/>
<path d="M4337 11152 c-103 -37 -192 -74 -197 -82 -11 -17 -14 -870 -3 -870 4
0 96 28 205 62 l198 63 0 230 c0 126 3 328 7 448 5 183 4 217 -8 216 -8 0 -99
-30 -202 -67z"/>
<path d="M3920 11007 l-175 -62 -3 -444 c-2 -353 0 -442 10 -439 7 3 93 32
191 64 l177 59 0 442 c0 348 -3 443 -12 442 -7 0 -92 -28 -188 -62z"/>
<path d="M3540 10872 l-165 -57 -3 -444 c-2 -353 0 -442 10 -439 7 3 88 31
181 63 l167 58 0 438 c0 345 -3 439 -12 438 -7 0 -87 -26 -178 -57z"/>
<path d="M3220 10764 c-69 -24 -144 -51 -167 -60 l-43 -16 0 -440 c0 -348 3
-439 13 -436 6 3 83 29 169 59 l158 54 0 443 c0 243 -1 442 -2 441 -2 0 -59
-20 -128 -45z"/>
<path d="M3918 10078 l-178 -60 0 -430 0 -429 23 7 c12 4 97 31 190 61 l167
54 0 429 c0 338 -3 430 -12 429 -7 0 -93 -28 -190 -61z"/>
<path d="M3538 9952 l-168 -57 0 -422 c0 -332 3 -423 13 -422 6 0 86 26 177
57 l165 57 3 423 c2 335 0 422 -10 421 -7 0 -88 -26 -180 -57z"/>
<path d="M3175 9830 l-170 -55 2 -414 c2 -228 4 -416 6 -418 4 -4 325 92 333
99 2 3 3 194 2 424 l-3 420 -170 -56z"/>
<path d="M3918 9188 l-178 -60 0 -409 c0 -225 2 -409 5 -409 3 0 89 21 190 46
l185 46 0 424 c0 333 -3 424 -12 423 -7 0 -93 -28 -190 -61z"/>
<path d="M3538 9067 l-168 -52 0 -404 0 -403 23 6 c12 3 76 20 142 37 66 16
137 35 158 40 l37 10 0 409 c0 322 -3 410 -12 409 -7 0 -88 -24 -180 -52z"/>
<path d="M2843 8925 c-108 -197 -112 -250 -28 -319 24 -20 59 -59 77 -87 l33
-52 3 179 c1 99 -1 231 -5 295 l-8 116 -72 -132z"/>
<path d="M3175 8956 l-160 -52 -3 -395 -2 -396 170 46 170 46 0 402 c0 222 -3
403 -7 402 -5 0 -80 -24 -168 -53z"/>
<path d="M4375 8425 c-88 -23 -179 -48 -202 -54 l-43 -12 -3 -372 -2 -372 -3
373 c-1 204 -5 372 -9 372 -5 0 -71 -18 -148 -39 -77 -22 -159 -44 -182 -50
l-43 -12 0 -408 0 -408 193 39 c257 52 599 118 609 118 4 0 8 196 8 435 0 239
-3 434 -7 434 -5 -1 -80 -20 -168 -44z"/>
<path d="M3536 8209 c-93 -26 -169 -50 -170 -51 -1 -2 0 -177 2 -390 3 -335 6
-388 19 -388 8 0 86 14 175 30 88 17 162 30 164 30 2 0 4 185 4 410 0 322 -3
410 -12 409 -7 -1 -89 -23 -182 -50z"/>
<path d="M3250 8135 c-47 -13 -123 -33 -169 -46 l-84 -22 6 -380 c4 -209 9
-382 11 -384 2 -3 78 11 168 30 l163 34 3 396 c1 218 -1 397 -5 396 -5 0 -46
-11 -93 -24z"/>
<path d="M2488 8063 c-14 -21 -30 -53 -36 -72 -16 -46 -15 -173 1 -193 6 -8
114 -81 240 -161 l227 -146 0 298 0 298 -127 6 c-71 4 -162 7 -204 7 l-76 0
-25 -37z"/>
<path d="M2520 7169 c-47 -4 -96 -12 -110 -17 -91 -36 -131 -191 -80 -309 12
-29 30 -55 39 -57 83 -26 511 -136 529 -136 18 0 22 6 22 33 0 17 5 133 10
256 8 176 7 227 -3 233 -15 10 -292 8 -407 -3z"/>
</g>
</svg>
